<?xml version="1.0" encoding="UTF-8" standalone="no"?><svg xmlns="http://www.w3.org/2000/svg" xmlns:xlink="http://www.w3.org/1999/xlink" contentScriptType="application/ecmascript" contentStyleType="text/css" height="962px" preserveAspectRatio="none" style="width:771px;height:962px;" version="1.1" viewBox="0 0 771 962" width="771px" zoomAndPan="magnify"><defs/><g><text fill="#FF0000" font-family="Helvetica" font-size="10" lengthAdjust="spacingAndGlyphs" textLength="117" x="592.6667" y="19.2822">Last Check : 06.11.2025</text><rect fill="none" height="51.9063" rx="7" ry="7" style="stroke: none; stroke-width: 1.0;" width="476" x="121.3333" y="26.6406"/><text fill="#000000" font-family="Helvetica" font-size="36" font-weight="bold" lengthAdjust="spacingAndGlyphs" textLength="466" x="126.3333" y="65.0566">Folder &amp; File Structure</text><rect fill="#C0C0C0" height="36.2969" rx="7" ry="7" style="stroke: #A80036; stroke-width: 1.5;" width="109" x="10" y="433.7383"/><text fill="#000000" font-family="Helvetica" font-size="14" lengthAdjust="spacingAndGlyphs" textLength="89" x="20" y="456.7334">citydb-3dtiler</text><rect fill="#C0C0C0" height="36.2969" rx="7" ry="7" style="stroke: #A80036; stroke-width: 1.5;" width="47.3333" x="169" y="150.8438"/><path d="M180.1097,164.3073 C180.0397,164.3073 180,164.347 180,164.417 L180,173.5321 C180,173.6021 180.0397,173.6418 180.1097,173.6418 L188.0582,173.6418 C188.1282,173.6418 188.1678,173.6021 188.1678,173.5321 L188.1678,164.417 C188.1678,164.347 188.1282,164.3073 188.0582,164.3073 L180.1097,164.3073 M181.1667,165.474 L187,165.474 L187,167.8073 L181.1667,167.8073 L181.1667,165.474 M181.1667,168.974 L182.3333,168.974 L182.3333,170.1406 L181.1667,170.1406 L181.1667,168.974 M183.5,168.974 L184.6667,168.974 L184.6667,170.1406 L183.5,170.1406 L183.5,168.974 M185.8333,168.974 L187,168.974 L187,172.474 L185.8333,172.474 L185.8333,168.974 M181.1667,171.3073 L182.3333,171.3073 L182.3333,172.474 L181.1667,172.474 L181.1667,171.3073 M183.5,171.3073 L184.6667,171.3073 L184.6667,172.474 L183.5,172.474 L183.5,171.3073 " fill="#000000" style="stroke: ; stroke-width: 0.0; stroke-dasharray: ;"/><text fill="#000000" font-family="Helvetica" font-size="14" lengthAdjust="spacingAndGlyphs" textLength="12" x="194.3333" y="173.8389">io</text><rect fill="#F8F8FF" height="36.2969" rx="7" ry="7" style="stroke: #A80036; stroke-width: 1.5;" width="85.3333" x="266.3333" y="94.5469"/><path d="M277.443,108.0104 C277.373,108.0104 277.3333,108.0501 277.3333,108.1201 L277.3333,117.2353 C277.3333,117.3053 277.373,117.3449 277.443,117.3449 L285.3915,117.3449 C285.4615,117.3449 285.5012,117.3053 285.5012,117.2353 L285.5012,108.1201 C285.5012,108.0501 285.4615,108.0104 285.3915,108.0104 L277.443,108.0104 M278.5,109.1771 L284.3333,109.1771 L284.3333,111.5104 L278.5,111.5104 L278.5,109.1771 M278.5,112.6771 L279.6667,112.6771 L279.6667,113.8438 L278.5,113.8438 L278.5,112.6771 M280.8333,112.6771 L282,112.6771 L282,113.8438 L280.8333,113.8438 L280.8333,112.6771 M283.1667,112.6771 L284.3333,112.6771 L284.3333,116.1771 L283.1667,116.1771 L283.1667,112.6771 M278.5,115.0104 L279.6667,115.0104 L279.6667,116.1771 L278.5,116.1771 L278.5,115.0104 M280.8333,115.0104 L282,115.0104 L282,116.1771 L280.8333,116.1771 L280.8333,115.0104 " fill="#000000" style="stroke: ; stroke-width: 0.0; stroke-dasharray: ;"/><text fill="#000000" font-family="Helvetica" font-size="14" lengthAdjust="spacingAndGlyphs" textLength="50" x="291.6667" y="117.542">io_yaml</text><text fill="#000000" font-family="Helvetica" font-size="14" lengthAdjust="spacingAndGlyphs" textLength="69" x="404.6667" y="108.3936">read_yaml</text><path d="M351.6667,112.6953 L361.6667,112.6953 C376.6667,112.6953 376.6667,103.5469 391.6667,103.5469 L401.6667,103.5469 " fill="none" style="stroke: #808080; stroke-width: 2.0;"/><text fill="#000000" font-family="Helvetica" font-size="14" lengthAdjust="spacingAndGlyphs" textLength="71" x="404.6667" y="126.6904">write_yaml</text><path d="M351.6667,112.6953 L361.6667,112.6953 C376.6667,112.6953 376.6667,121.8438 391.6667,121.8438 L401.6667,121.8438 " fill="none" style="stroke: #808080; stroke-width: 2.0;"/><path d="M216.3333,168.9922 L226.3333,168.9922 C241.3333,168.9922 241.3333,112.6953 256.3333,112.6953 L266.3333,112.6953 " fill="none" style="stroke: #808080; stroke-width: 2.0;"/><rect fill="#F8F8FF" height="36.2969" rx="7" ry="7" style="stroke: #A80036; stroke-width: 1.5;" width="74.3333" x="266.3333" y="150.8438"/><path d="M277.443,164.3073 C277.373,164.3073 277.3333,164.347 277.3333,164.417 L277.3333,173.5321 C277.3333,173.6021 277.373,173.6418 277.443,173.6418 L285.3915,173.6418 C285.4615,173.6418 285.5012,173.6021 285.5012,173.5321 L285.5012,164.417 C285.5012,164.347 285.4615,164.3073 285.3915,164.3073 L277.443,164.3073 M278.5,165.474 L284.3333,165.474 L284.3333,167.8073 L278.5,167.8073 L278.5,165.474 M278.5,168.974 L279.6667,168.974 L279.6667,170.1406 L278.5,170.1406 L278.5,168.974 M280.8333,168.974 L282,168.974 L282,170.1406 L280.8333,170.1406 L280.8333,168.974 M283.1667,168.974 L284.3333,168.974 L284.3333,172.474 L283.1667,172.474 L283.1667,168.974 M278.5,171.3073 L279.6667,171.3073 L279.6667,172.474 L278.5,172.474 L278.5,171.3073 M280.8333,171.3073 L282,171.3073 L282,172.474 L280.8333,172.474 L280.8333,171.3073 " fill="#000000" style="stroke: ; stroke-width: 0.0; stroke-dasharray: ;"/><text fill="#000000" font-family="Helvetica" font-size="14" lengthAdjust="spacingAndGlyphs" textLength="39" x="291.6667" y="173.8389">io_sql</text><text fill="#000000" font-family="Helvetica" font-size="14" lengthAdjust="spacingAndGlyphs" textLength="104" x="393.6667" y="173.8389">read_sql_query</text><path d="M340.6667,168.9922 L350.6667,168.9922 C365.6667,168.9922 365.6667,168.9922 380.6667,168.9922 L390.6667,168.9922 " fill="none" style="stroke: #808080; stroke-width: 2.0;"/><path d="M216.3333,168.9922 L226.3333,168.9922 C241.3333,168.9922 241.3333,168.9922 256.3333,168.9922 L266.3333,168.9922 " fill="none" style="stroke: #808080; stroke-width: 2.0;"/><rect fill="#F8F8FF" height="36.2969" rx="7" ry="7" style="stroke: #A80036; stroke-width: 1.5;" width="82.3333" x="266.3333" y="207.1406"/><path d="M277.443,220.6042 C277.373,220.6042 277.3333,220.6438 277.3333,220.7138 L277.3333,229.829 C277.3333,229.899 277.373,229.9387 277.443,229.9387 L285.3915,229.9387 C285.4615,229.9387 285.5012,229.899 285.5012,229.829 L285.5012,220.7138 C285.5012,220.6438 285.4615,220.6042 285.3915,220.6042 L277.443,220.6042 M278.5,221.7708 L284.3333,221.7708 L284.3333,224.1042 L278.5,224.1042 L278.5,221.7708 M278.5,225.2708 L279.6667,225.2708 L279.6667,226.4375 L278.5,226.4375 L278.5,225.2708 M280.8333,225.2708 L282,225.2708 L282,226.4375 L280.8333,226.4375 L280.8333,225.2708 M283.1667,225.2708 L284.3333,225.2708 L284.3333,228.7708 L283.1667,228.7708 L283.1667,225.2708 M278.5,227.6042 L279.6667,227.6042 L279.6667,228.7708 L278.5,228.7708 L278.5,227.6042 M280.8333,227.6042 L282,227.6042 L282,228.7708 L280.8333,228.7708 L280.8333,227.6042 " fill="#000000" style="stroke: ; stroke-width: 0.0; stroke-dasharray: ;"/><text fill="#000000" font-family="Helvetica" font-size="14" lengthAdjust="spacingAndGlyphs" textLength="47" x="291.6667" y="230.1357">io_tiles</text><text fill="#000000" font-family="Helvetica" font-size="14" lengthAdjust="spacingAndGlyphs" textLength="98" x="401.6667" y="230.1357">generate_tiles</text><path d="M348.6667,225.2891 L358.6667,225.2891 C373.6667,225.2891 373.6667,225.2891 388.6667,225.2891 L398.6667,225.2891 " fill="none" style="stroke: #808080; stroke-width: 2.0;"/><path d="M216.3333,168.9922 L226.3333,168.9922 C241.3333,168.9922 241.3333,225.2891 256.3333,225.2891 L266.3333,225.2891 " fill="none" style="stroke: #808080; stroke-width: 2.0;"/><path d="M119,451.8867 L129,451.8867 C144,451.8867 144,168.9922 159,168.9922 L169,168.9922 " fill="none" style="stroke: #808080; stroke-width: 2.0;"/><rect fill="#C0C0C0" height="36.2969" rx="7" ry="7" style="stroke: #A80036; stroke-width: 1.5;" width="87.3333" x="169" y="300.0313"/><path d="M183.5,313.4948 C182.8537,313.4948 182.3333,314.0291 182.3333,314.6615 L182.3333,315.8281 L180.1097,315.8281 C180.0397,315.8281 180,315.8678 180,315.9378 L180,318.7448 C180,319.0715 180.2567,319.3281 180.5833,319.3281 L188.75,319.3281 C189.0767,319.3281 189.3333,319.0715 189.3333,318.7448 L189.3333,315.9378 C189.3333,315.8678 189.2937,315.8281 189.2237,315.8281 L187,315.8281 L187,314.6615 C187,314.0291 186.4797,313.4948 185.8333,313.4948 L183.5,313.4948 M183.5,314.6615 L185.8333,314.6615 L185.8333,315.8281 L183.5,315.8281 L183.5,314.6615 M180,320.3851 L180,322.7185 C180,322.7885 180.0397,322.8281 180.1097,322.8281 L189.2248,322.8281 C189.2948,322.8281 189.3345,322.7885 189.3345,322.7185 L189.3345,320.3851 C189.1478,320.4435 188.9612,320.4948 188.7512,320.4948 L180.5845,320.4948 C180.3745,320.4948 180.1878,320.4435 180.0012,320.3851 " fill="#000000" style="stroke: ; stroke-width: 0.0; stroke-dasharray: ;"/><text fill="#000000" font-family="Helvetica" font-size="14" lengthAdjust="spacingAndGlyphs" textLength="52" x="194.3333" y="323.0264">classes</text><rect fill="#F8F8FF" height="36.2969" rx="7" ry="7" style="stroke: #A80036; stroke-width: 1.5;" width="115.3333" x="306.3333" y="263.4375"/><path d="M320.8333,276.901 C320.187,276.901 319.6667,277.4354 319.6667,278.0677 L319.6667,279.2344 L317.443,279.2344 C317.373,279.2344 317.3333,279.274 317.3333,279.344 L317.3333,282.151 C317.3333,282.4777 317.59,282.7344 317.9167,282.7344 L326.0833,282.7344 C326.41,282.7344 326.6667,282.4777 326.6667,282.151 L326.6667,279.344 C326.6667,279.274 326.627,279.2344 326.557,279.2344 L324.3333,279.2344 L324.3333,278.0677 C324.3333,277.4354 323.813,276.901 323.1667,276.901 L320.8333,276.901 M320.8333,278.0677 L323.1667,278.0677 L323.1667,279.2344 L320.8333,279.2344 L320.8333,278.0677 M317.3333,283.7914 L317.3333,286.1247 C317.3333,286.1947 317.373,286.2344 317.443,286.2344 L326.5582,286.2344 C326.6282,286.2344 326.6678,286.1947 326.6678,286.1247 L326.6678,283.7914 C326.4812,283.8497 326.2945,283.901 326.0845,283.901 L317.9178,283.901 C317.7078,283.901 317.5212,283.8497 317.3345,283.7914 " fill="#000000" style="stroke: ; stroke-width: 0.0; stroke-dasharray: ;"/><text fill="#000000" font-family="Helvetica" font-size="14" lengthAdjust="spacingAndGlyphs" textLength="80" x="331.6667" y="286.4326">advisement</text><text fill="#000000" font-family="Helvetica" font-size="14" lengthAdjust="spacingAndGlyphs" textLength="81" x="474.6667" y="286.4326">Advisement</text><path d="M421.6667,281.5859 L431.6667,281.5859 C446.6667,281.5859 446.6667,281.5859 461.6667,281.5859 L471.6667,281.5859 " fill="none" style="stroke: #808080; stroke-width: 2.0;"/><path d="M256.3333,318.1797 L266.3333,318.1797 C281.3333,318.1797 281.3333,281.5859 296.3333,281.5859 L306.3333,281.5859 " fill="none" style="stroke: #808080; stroke-width: 2.0;"/><rect fill="#F8F8FF" height="36.2969" rx="7" ry="7" style="stroke: #A80036; stroke-width: 1.5;" width="107.3333" x="306.3333" y="328.1797"/><path d="M320.8333,341.6432 C320.187,341.6432 319.6667,342.1776 319.6667,342.8099 L319.6667,343.9766 L317.443,343.9766 C317.373,343.9766 317.3333,344.0162 317.3333,344.0862 L317.3333,346.8932 C317.3333,347.2199 317.59,347.4766 317.9167,347.4766 L326.0833,347.4766 C326.41,347.4766 326.6667,347.2199 326.6667,346.8932 L326.6667,344.0862 C326.6667,344.0162 326.627,343.9766 326.557,343.9766 L324.3333,343.9766 L324.3333,342.8099 C324.3333,342.1776 323.813,341.6432 323.1667,341.6432 L320.8333,341.6432 M320.8333,342.8099 L323.1667,342.8099 L323.1667,343.9766 L320.8333,343.9766 L320.8333,342.8099 M317.3333,348.5336 L317.3333,350.8669 C317.3333,350.9369 317.373,350.9766 317.443,350.9766 L326.5582,350.9766 C326.6282,350.9766 326.6678,350.9369 326.6678,350.8669 L326.6678,348.5336 C326.4812,348.5919 326.2945,348.6432 326.0845,348.6432 L317.9178,348.6432 C317.7078,348.6432 317.5212,348.5919 317.3345,348.5336 " fill="#000000" style="stroke: ; stroke-width: 0.0; stroke-dasharray: ;"/><text fill="#000000" font-family="Helvetica" font-size="14" lengthAdjust="spacingAndGlyphs" textLength="72" x="331.6667" y="351.1748">sql_blocks</text><text fill="#000000" font-family="Helvetica" font-size="14" lengthAdjust="spacingAndGlyphs" textLength="154" x="466.6667" y="323.7295">CompositeQueryBlock</text><path d="M413.6667,346.3281 L423.6667,346.3281 C438.6667,346.3281 438.6667,318.8828 453.6667,318.8828 L463.6667,318.8828 " fill="none" style="stroke: #808080; stroke-width: 2.0;"/><text fill="#000000" font-family="Helvetica" font-size="14" lengthAdjust="spacingAndGlyphs" textLength="79" x="466.6667" y="342.0264">QueryBlock</text><path d="M413.6667,346.3281 L423.6667,346.3281 C438.6667,346.3281 438.6667,337.1797 453.6667,337.1797 L463.6667,337.1797 " fill="none" style="stroke: #808080; stroke-width: 2.0;"/><text fill="#000000" font-family="Helvetica" font-size="14" lengthAdjust="spacingAndGlyphs" textLength="87" x="466.6667" y="360.3232">QueryBlocks</text><path d="M413.6667,346.3281 L423.6667,346.3281 C438.6667,346.3281 438.6667,355.4766 453.6667,355.4766 L463.6667,355.4766 " fill="none" style="stroke: #808080; stroke-width: 2.0;"/><text fill="#000000" font-family="Helvetica" font-size="14" lengthAdjust="spacingAndGlyphs" textLength="78" x="466.6667" y="378.6201">and_others</text><path d="M413.6667,346.3281 L423.6667,346.3281 C438.6667,346.3281 438.6667,373.7734 453.6667,373.7734 L463.6667,373.7734 " fill="none" style="stroke: #808080; stroke-width: 2.0;"/><path d="M256.3333,318.1797 L266.3333,318.1797 C281.3333,318.1797 281.3333,346.3281 296.3333,346.3281 L306.3333,346.3281 " fill="none" style="stroke: #808080; stroke-width: 2.0;"/><path d="M119,451.8867 L129,451.8867 C144,451.8867 144,318.1797 159,318.1797 L169,318.1797 " fill="none" style="stroke: #808080; stroke-width: 2.0;"/><rect fill="#C0C0C0" height="36.2969" rx="7" ry="7" style="stroke: #A80036; stroke-width: 1.5;" width="99.3333" x="169" y="437.9609"/><path d="M180.1097,451.4245 C180.0397,451.4245 180,451.4641 180,451.5341 L180,460.6493 C180,460.7193 180.0397,460.759 180.1097,460.759 L188.0582,460.759 C188.1282,460.759 188.1678,460.7193 188.1678,460.6493 L188.1678,451.5341 C188.1678,451.4641 188.1282,451.4245 188.0582,451.4245 L180.1097,451.4245 M181.1667,452.5911 L187,452.5911 L187,454.9245 L181.1667,454.9245 L181.1667,452.5911 M181.1667,456.0911 L182.3333,456.0911 L182.3333,457.2578 L181.1667,457.2578 L181.1667,456.0911 M183.5,456.0911 L184.6667,456.0911 L184.6667,457.2578 L183.5,457.2578 L183.5,456.0911 M185.8333,456.0911 L187,456.0911 L187,459.5911 L185.8333,459.5911 L185.8333,456.0911 M181.1667,458.4245 L182.3333,458.4245 L182.3333,459.5911 L181.1667,459.5911 L181.1667,458.4245 M183.5,458.4245 L184.6667,458.4245 L184.6667,459.5911 L183.5,459.5911 L183.5,458.4245 " fill="#000000" style="stroke: ; stroke-width: 0.0; stroke-dasharray: ;"/><text fill="#000000" font-family="Helvetica" font-size="14" lengthAdjust="spacingAndGlyphs" textLength="64" x="194.3333" y="460.9561">database</text><rect fill="#F8F8FF" height="36.2969" rx="7" ry="7" style="stroke: #A80036; stroke-width: 1.5;" width="138.3333" x="318.3333" y="437.9609"/><path d="M329.443,451.4245 C329.373,451.4245 329.3333,451.4641 329.3333,451.5341 L329.3333,460.6493 C329.3333,460.7193 329.373,460.759 329.443,460.759 L337.3915,460.759 C337.4615,460.759 337.5012,460.7193 337.5012,460.6493 L337.5012,451.5341 C337.5012,451.4641 337.4615,451.4245 337.3915,451.4245 L329.443,451.4245 M330.5,452.5911 L336.3333,452.5911 L336.3333,454.9245 L330.5,454.9245 L330.5,452.5911 M330.5,456.0911 L331.6667,456.0911 L331.6667,457.2578 L330.5,457.2578 L330.5,456.0911 M332.8333,456.0911 L334,456.0911 L334,457.2578 L332.8333,457.2578 L332.8333,456.0911 M335.1667,456.0911 L336.3333,456.0911 L336.3333,459.5911 L335.1667,459.5911 L335.1667,456.0911 M330.5,458.4245 L331.6667,458.4245 L331.6667,459.5911 L330.5,459.5911 L330.5,458.4245 M332.8333,458.4245 L334,458.4245 L334,459.5911 L332.8333,459.5911 L332.8333,458.4245 " fill="#000000" style="stroke: ; stroke-width: 0.0; stroke-dasharray: ;"/><text fill="#000000" font-family="Helvetica" font-size="14" lengthAdjust="spacingAndGlyphs" textLength="103" x="343.6667" y="460.9561">pg_connection</text><text fill="#000000" font-family="Helvetica" font-size="14" lengthAdjust="spacingAndGlyphs" textLength="114" x="509.6667" y="396.917">pg_show_details</text><path d="M456.6667,456.1094 L466.6667,456.1094 C481.6667,456.1094 481.6667,392.0703 496.6667,392.0703 L506.6667,392.0703 " fill="none" style="stroke: #808080; stroke-width: 2.0;"/><text fill="#000000" font-family="Helvetica" font-size="14" lengthAdjust="spacingAndGlyphs" textLength="87" x="509.6667" y="415.2139">pg_establish</text><path d="M456.6667,456.1094 L466.6667,456.1094 C481.6667,456.1094 481.6667,410.3672 496.6667,410.3672 L506.6667,410.3672 " fill="none" style="stroke: #808080; stroke-width: 2.0;"/><text fill="#000000" font-family="Helvetica" font-size="14" lengthAdjust="spacingAndGlyphs" textLength="130" x="509.6667" y="433.5107">pg_create_session</text><path d="M456.6667,456.1094 L466.6667,456.1094 C481.6667,456.1094 481.6667,428.6641 496.6667,428.6641 L506.6667,428.6641 " fill="none" style="stroke: #808080; stroke-width: 2.0;"/><text fill="#000000" font-family="Helvetica" font-size="14" lengthAdjust="spacingAndGlyphs" textLength="152" x="509.6667" y="451.8076">pg_check_connection</text><path d="M456.6667,456.1094 L466.6667,456.1094 C481.6667,456.1094 481.6667,446.9609 496.6667,446.9609 L506.6667,446.9609 " fill="none" style="stroke: #808080; stroke-width: 2.0;"/><text fill="#000000" font-family="Helvetica" font-size="14" lengthAdjust="spacingAndGlyphs" textLength="171" x="509.6667" y="470.1045">create_materialized_view</text><path d="M456.6667,456.1094 L466.6667,456.1094 C481.6667,456.1094 481.6667,465.2578 496.6667,465.2578 L506.6667,465.2578 " fill="none" style="stroke: #808080; stroke-width: 2.0;"/><text fill="#000000" font-family="Helvetica" font-size="14" lengthAdjust="spacingAndGlyphs" textLength="164" x="509.6667" y="488.4014">index_materialized_view</text><path d="M456.6667,456.1094 L466.6667,456.1094 C481.6667,456.1094 481.6667,483.5547 496.6667,483.5547 L506.6667,483.5547 " fill="none" style="stroke: #808080; stroke-width: 2.0;"/><text fill="#000000" font-family="Helvetica" font-size="14" lengthAdjust="spacingAndGlyphs" textLength="69" x="509.6667" y="506.6982">run_query</text><path d="M456.6667,456.1094 L466.6667,456.1094 C481.6667,456.1094 481.6667,501.8516 496.6667,501.8516 L506.6667,501.8516 " fill="none" style="stroke: #808080; stroke-width: 2.0;"/><text fill="#000000" font-family="Helvetica" font-size="14" lengthAdjust="spacingAndGlyphs" textLength="50" x="509.6667" y="524.9951">run_sql</text><path d="M456.6667,456.1094 L466.6667,456.1094 C481.6667,456.1094 481.6667,520.1484 496.6667,520.1484 L506.6667,520.1484 " fill="none" style="stroke: #808080; stroke-width: 2.0;"/><path d="M268.3333,456.1094 L278.3333,456.1094 C293.3333,456.1094 293.3333,456.1094 308.3333,456.1094 L318.3333,456.1094 " fill="none" style="stroke: #808080; stroke-width: 2.0;"/><path d="M119,451.8867 L129,451.8867 C144,451.8867 144,456.1094 159,456.1094 L169,456.1094 " fill="none" style="stroke: #808080; stroke-width: 2.0;"/><rect fill="#C0C0C0" height="36.2969" rx="7" ry="7" style="stroke: #A80036; stroke-width: 1.5;" width="102.3333" x="169" y="571.668"/><path d="M183.5,585.1315 C182.8537,585.1315 182.3333,585.6658 182.3333,586.2982 L182.3333,587.4648 L180.1097,587.4648 C180.0397,587.4648 180,587.5045 180,587.5745 L180,590.3815 C180,590.7082 180.2567,590.9648 180.5833,590.9648 L188.75,590.9648 C189.0767,590.9648 189.3333,590.7082 189.3333,590.3815 L189.3333,587.5745 C189.3333,587.5045 189.2937,587.4648 189.2237,587.4648 L187,587.4648 L187,586.2982 C187,585.6658 186.4797,585.1315 185.8333,585.1315 L183.5,585.1315 M183.5,586.2982 L185.8333,586.2982 L185.8333,587.4648 L183.5,587.4648 L183.5,586.2982 M180,592.0218 L180,594.3552 C180,594.4252 180.0397,594.4648 180.1097,594.4648 L189.2248,594.4648 C189.2948,594.4648 189.3345,594.4252 189.3345,594.3552 L189.3345,592.0218 C189.1478,592.0802 188.9612,592.1315 188.7512,592.1315 L180.5845,592.1315 C180.3745,592.1315 180.1878,592.0802 180.0012,592.0218 " fill="#000000" style="stroke: ; stroke-width: 0.0; stroke-dasharray: ;"/><text fill="#000000" font-family="Helvetica" font-size="14" lengthAdjust="spacingAndGlyphs" textLength="67" x="194.3333" y="594.6631">instances</text><rect fill="#F8F8FF" height="36.2969" rx="7" ry="7" style="stroke: #A80036; stroke-width: 1.5;" width="78.3333" x="321.3333" y="539.2969"/><path d="M335.8333,552.7604 C335.187,552.7604 334.6667,553.2947 334.6667,553.9271 L334.6667,555.0938 L332.443,555.0938 C332.373,555.0938 332.3333,555.1334 332.3333,555.2034 L332.3333,558.0104 C332.3333,558.3371 332.59,558.5938 332.9167,558.5938 L341.0833,558.5938 C341.41,558.5938 341.6667,558.3371 341.6667,558.0104 L341.6667,555.2034 C341.6667,555.1334 341.627,555.0938 341.557,555.0938 L339.3333,555.0938 L339.3333,553.9271 C339.3333,553.2947 338.813,552.7604 338.1667,552.7604 L335.8333,552.7604 M335.8333,553.9271 L338.1667,553.9271 L338.1667,555.0938 L335.8333,555.0938 L335.8333,553.9271 M332.3333,559.6508 L332.3333,561.9841 C332.3333,562.0541 332.373,562.0938 332.443,562.0938 L341.5582,562.0938 C341.6282,562.0938 341.6678,562.0541 341.6678,561.9841 L341.6678,559.6508 C341.4812,559.7091 341.2945,559.7604 341.0845,559.7604 L332.9178,559.7604 C332.7078,559.7604 332.5212,559.7091 332.3345,559.6508 " fill="#000000" style="stroke: ; stroke-width: 0.0; stroke-dasharray: ;"/><text fill="#000000" font-family="Helvetica" font-size="14" lengthAdjust="spacingAndGlyphs" textLength="43" x="346.6667" y="562.292">kernel</text><text fill="#000000" font-family="Helvetica" font-size="14" lengthAdjust="spacingAndGlyphs" textLength="72" x="452.6667" y="562.292">set_kernel</text><path d="M399.6667,557.4453 L409.6667,557.4453 C424.6667,557.4453 424.6667,557.4453 439.6667,557.4453 L449.6667,557.4453 " fill="none" style="stroke: #808080; stroke-width: 2.0;"/><path d="M271.3333,589.8164 L281.3333,589.8164 C296.3333,589.8164 296.3333,557.4453 311.3333,557.4453 L321.3333,557.4453 " fill="none" style="stroke: #808080; stroke-width: 2.0;"/><rect fill="#F8F8FF" height="36.2969" rx="7" ry="7" style="stroke: #A80036; stroke-width: 1.5;" width="98.3333" x="321.3333" y="595.5938"/><path d="M335.8333,609.0573 C335.187,609.0573 334.6667,609.5916 334.6667,610.224 L334.6667,611.3906 L332.443,611.3906 C332.373,611.3906 332.3333,611.4303 332.3333,611.5003 L332.3333,614.3073 C332.3333,614.634 332.59,614.8906 332.9167,614.8906 L341.0833,614.8906 C341.41,614.8906 341.6667,614.634 341.6667,614.3073 L341.6667,611.5003 C341.6667,611.4303 341.627,611.3906 341.557,611.3906 L339.3333,611.3906 L339.3333,610.224 C339.3333,609.5916 338.813,609.0573 338.1667,609.0573 L335.8333,609.0573 M335.8333,610.224 L338.1667,610.224 L338.1667,611.3906 L335.8333,611.3906 L335.8333,610.224 M332.3333,615.9476 L332.3333,618.281 C332.3333,618.351 332.373,618.3906 332.443,618.3906 L341.5582,618.3906 C341.6282,618.3906 341.6678,618.351 341.6678,618.281 L341.6678,615.9476 C341.4812,616.006 341.2945,616.0573 341.0845,616.0573 L332.9178,616.0573 C332.7078,616.0573 332.5212,616.006 332.3345,615.9476 " fill="#000000" style="stroke: ; stroke-width: 0.0; stroke-dasharray: ;"/><text fill="#000000" font-family="Helvetica" font-size="14" lengthAdjust="spacingAndGlyphs" textLength="63" x="346.6667" y="618.5889">in_advise</text><text fill="#000000" font-family="Helvetica" font-size="14" lengthAdjust="spacingAndGlyphs" textLength="167" x="472.6667" y="591.1436">statistics_of_geometries</text><path d="M419.6667,613.7422 L429.6667,613.7422 C444.6667,613.7422 444.6667,586.2969 459.6667,586.2969 L469.6667,586.2969 " fill="none" style="stroke: #808080; stroke-width: 2.0;"/><text fill="#000000" font-family="Helvetica" font-size="14" lengthAdjust="spacingAndGlyphs" textLength="177" x="472.6667" y="609.4404">addition_of_objectclasses</text><path d="M419.6667,613.7422 L429.6667,613.7422 C444.6667,613.7422 444.6667,604.5938 459.6667,604.5938 L469.6667,604.5938 " fill="none" style="stroke: #808080; stroke-width: 2.0;"/><text fill="#000000" font-family="Helvetica" font-size="14" lengthAdjust="spacingAndGlyphs" textLength="287" x="472.6667" y="627.7373">statistics_of_geometries_w_objectclasses</text><path d="M419.6667,613.7422 L429.6667,613.7422 C444.6667,613.7422 444.6667,622.8906 459.6667,622.8906 L469.6667,622.8906 " fill="none" style="stroke: #808080; stroke-width: 2.0;"/><text fill="#000000" font-family="Helvetica" font-size="14" lengthAdjust="spacingAndGlyphs" textLength="258" x="472.6667" y="646.0342">recommended_max_features_per_tile</text><path d="M419.6667,613.7422 L429.6667,613.7422 C444.6667,613.7422 444.6667,641.1875 459.6667,641.1875 L469.6667,641.1875 " fill="none" style="stroke: #808080; stroke-width: 2.0;"/><path d="M271.3333,589.8164 L281.3333,589.8164 C296.3333,589.8164 296.3333,613.7422 311.3333,613.7422 L321.3333,613.7422 " fill="none" style="stroke: #808080; stroke-width: 2.0;"/><path d="M119,451.8867 L129,451.8867 C144,451.8867 144,589.8164 159,589.8164 L169,589.8164 " fill="none" style="stroke: #808080; stroke-width: 2.0;"/><rect fill="#F8F8FF" height="36.2969" rx="7" ry="7" style="stroke: #A80036; stroke-width: 1.5;" width="124.3333" x="169" y="660.3359"/><path d="M180.1097,673.7995 C180.0397,673.7995 180,673.8391 180,673.9091 L180,683.0243 C180,683.0943 180.0397,683.134 180.1097,683.134 L188.0582,683.134 C188.1282,683.134 188.1678,683.0943 188.1678,683.0243 L188.1678,673.9091 C188.1678,673.8391 188.1282,673.7995 188.0582,673.7995 L180.1097,673.7995 M181.1667,674.9661 L187,674.9661 L187,677.2995 L181.1667,677.2995 L181.1667,674.9661 M181.1667,678.4661 L182.3333,678.4661 L182.3333,679.6328 L181.1667,679.6328 L181.1667,678.4661 M183.5,678.4661 L184.6667,678.4661 L184.6667,679.6328 L183.5,679.6328 L183.5,678.4661 M185.8333,678.4661 L187,678.4661 L187,681.9661 L185.8333,681.9661 L185.8333,678.4661 M181.1667,680.7995 L182.3333,680.7995 L182.3333,681.9661 L181.1667,681.9661 L181.1667,680.7995 M183.5,680.7995 L184.6667,680.7995 L184.6667,681.9661 L183.5,681.9661 L183.5,680.7995 " fill="#000000" style="stroke: ; stroke-width: 0.0; stroke-dasharray: ;"/><text fill="#000000" font-family="Helvetica" font-size="14" lengthAdjust="spacingAndGlyphs" textLength="89" x="194.3333" y="683.3311">citydb-3dtiler</text><path d="M119,451.8867 L129,451.8867 C144,451.8867 144,678.4844 159,678.4844 L169,678.4844 " fill="none" style="stroke: #808080; stroke-width: 2.0;"/><rect fill="#F8F8FF" height="36.2969" rx="7" ry="7" style="stroke: #A80036; stroke-width: 1.5;" width="119.3333" x="169" y="716.6328"/><path d="M180.1097,730.0964 C180.0397,730.0964 180,730.136 180,730.206 L180,739.3212 C180,739.3912 180.0397,739.4309 180.1097,739.4309 L188.0582,739.4309 C188.1282,739.4309 188.1678,739.3912 188.1678,739.3212 L188.1678,730.206 C188.1678,730.136 188.1282,730.0964 188.0582,730.0964 L180.1097,730.0964 M181.1667,731.263 L187,731.263 L187,733.5964 L181.1667,733.5964 L181.1667,731.263 M181.1667,734.763 L182.3333,734.763 L182.3333,735.9297 L181.1667,735.9297 L181.1667,734.763 M183.5,734.763 L184.6667,734.763 L184.6667,735.9297 L183.5,735.9297 L183.5,734.763 M185.8333,734.763 L187,734.763 L187,738.263 L185.8333,738.263 L185.8333,734.763 M181.1667,737.0964 L182.3333,737.0964 L182.3333,738.263 L181.1667,738.263 L181.1667,737.0964 M183.5,737.0964 L184.6667,737.0964 L184.6667,738.263 L183.5,738.263 L183.5,737.0964 " fill="#000000" style="stroke: ; stroke-width: 0.0; stroke-dasharray: ;"/><text fill="#000000" font-family="Helvetica" font-size="14" lengthAdjust="spacingAndGlyphs" textLength="84" x="194.3333" y="739.6279">advise_main</text><path d="M119,451.8867 L129,451.8867 C144,451.8867 144,734.7813 159,734.7813 L169,734.7813 " fill="none" style="stroke: #808080; stroke-width: 2.0;"/><rect fill="#F8F8FF" height="36.2969" rx="7" ry="7" style="stroke: #A80036; stroke-width: 1.5;" width="95.3333" x="169" y="772.9297"/><path d="M180.1097,786.3932 C180.0397,786.3932 180,786.4329 180,786.5029 L180,795.6181 C180,795.6881 180.0397,795.7277 180.1097,795.7277 L188.0582,795.7277 C188.1282,795.7277 188.1678,795.6881 188.1678,795.6181 L188.1678,786.5029 C188.1678,786.4329 188.1282,786.3932 188.0582,786.3932 L180.1097,786.3932 M181.1667,787.5599 L187,787.5599 L187,789.8932 L181.1667,789.8932 L181.1667,787.5599 M181.1667,791.0599 L182.3333,791.0599 L182.3333,792.2266 L181.1667,792.2266 L181.1667,791.0599 M183.5,791.0599 L184.6667,791.0599 L184.6667,792.2266 L183.5,792.2266 L183.5,791.0599 M185.8333,791.0599 L187,791.0599 L187,794.5599 L185.8333,794.5599 L185.8333,791.0599 M181.1667,793.3932 L182.3333,793.3932 L182.3333,794.5599 L181.1667,794.5599 L181.1667,793.3932 M183.5,793.3932 L184.6667,793.3932 L184.6667,794.5599 L183.5,794.5599 L183.5,793.3932 " fill="#000000" style="stroke: ; stroke-width: 0.0; stroke-dasharray: ;"/><text fill="#000000" font-family="Helvetica" font-size="14" lengthAdjust="spacingAndGlyphs" textLength="60" x="194.3333" y="795.9248">tile_main</text><path d="M119,451.8867 L129,451.8867 C144,451.8867 144,791.0781 159,791.0781 L169,791.0781 " fill="none" style="stroke: #808080; stroke-width: 2.0;"/><rect fill="#DDDDDD" height="124.0781" rx="5" ry="5" style="stroke: #000000; stroke-width: 1.0;" width="183.3333" x="18" y="827.2266"/><text fill="#000000" font-family="Helvetica" font-size="14" lengthAdjust="spacingAndGlyphs" textLength="42" x="24" y="845.2217">Icons:</text><text fill="#000000" font-family="Helvetica" font-size="14" lengthAdjust="spacingAndGlyphs" textLength="59" x="40" y="861.5186">Main File</text><path d="M108.6667,851.987 L104,855.487 L105.1667,855.487 L105.1667,860.1536 L107.5,860.1536 L107.5,857.8203 L109.8333,857.8203 L109.8333,860.1536 L112.1667,860.1536 L112.1667,855.4508 L113.3333,855.487 L108.6667,851.987 " fill="#000000" style="stroke: ; stroke-width: 0.0; stroke-dasharray: ;"/><text fill="#000000" font-family="Helvetica" font-size="14" lengthAdjust="spacingAndGlyphs" textLength="68" x="40" y="877.8154">Functions</text><path d="M113.1097,868.2839 C113.0397,868.2839 113,868.3235 113,868.3935 L113,877.5087 C113,877.5787 113.0397,877.6184 113.1097,877.6184 L121.0582,877.6184 C121.1282,877.6184 121.1678,877.5787 121.1678,877.5087 L121.1678,868.3935 C121.1678,868.3235 121.1282,868.2839 121.0582,868.2839 L113.1097,868.2839 M114.1667,869.4505 L120,869.4505 L120,871.7839 L114.1667,871.7839 L114.1667,869.4505 M114.1667,872.9505 L115.3333,872.9505 L115.3333,874.1172 L114.1667,874.1172 L114.1667,872.9505 M116.5,872.9505 L117.6667,872.9505 L117.6667,874.1172 L116.5,874.1172 L116.5,872.9505 M118.8333,872.9505 L120,872.9505 L120,876.4505 L118.8333,876.4505 L118.8333,872.9505 M114.1667,875.2839 L115.3333,875.2839 L115.3333,876.4505 L114.1667,876.4505 L114.1667,875.2839 M116.5,875.2839 L117.6667,875.2839 L117.6667,876.4505 L116.5,876.4505 L116.5,875.2839 " fill="#000000" style="stroke: ; stroke-width: 0.0; stroke-dasharray: ;"/><text fill="#000000" font-family="Helvetica" font-size="14" lengthAdjust="spacingAndGlyphs" textLength="140" x="40" y="894.1123">Classes/Dictionaries</text><path d="M188.5,884.5807 C187.8537,884.5807 187.3333,885.1151 187.3333,885.7474 L187.3333,886.9141 L185.1097,886.9141 C185.0397,886.9141 185,886.9537 185,887.0237 L185,889.8307 C185,890.1574 185.2567,890.4141 185.5833,890.4141 L193.75,890.4141 C194.0767,890.4141 194.3333,890.1574 194.3333,889.8307 L194.3333,887.0237 C194.3333,886.9537 194.2937,886.9141 194.2237,886.9141 L192,886.9141 L192,885.7474 C192,885.1151 191.4797,884.5807 190.8333,884.5807 L188.5,884.5807 M188.5,885.7474 L190.8333,885.7474 L190.8333,886.9141 L188.5,886.9141 L188.5,885.7474 M185,891.4711 L185,893.8044 C185,893.8744 185.0397,893.9141 185.1097,893.9141 L194.2248,893.9141 C194.2948,893.9141 194.3345,893.8744 194.3345,893.8044 L194.3345,891.4711 C194.1478,891.5294 193.9612,891.5807 193.7512,891.5807 L185.5845,891.5807 C185.3745,891.5807 185.1878,891.5294 185.0012,891.4711 " fill="#000000" style="stroke: ; stroke-width: 0.0; stroke-dasharray: ;"/><text fill="#000000" font-family="Helvetica" font-size="14" lengthAdjust="spacingAndGlyphs" textLength="79" x="24" y="910.4092">Box Colors:</text><text fill="#000000" font-family="Helvetica" font-size="14" lengthAdjust="spacingAndGlyphs" textLength="102" x="40" y="926.7061">Folders = Gray</text><text fill="#000000" font-family="Helvetica" font-size="14" lengthAdjust="spacingAndGlyphs" textLength="90" x="40" y="943.0029">Files = White</text><!--MD5=[4c1f16c1372d77d5b8b1ea2b9c07a472]
@startmindmap




skinparam {
    DefaultFontName Helvetica 
    defaultTextAlignment center
    RoundCorner 14
    Shadowing false

    BackgroundColor transparent

    TitleFontSize 36
    TitleFontStyle Bold

    minClassWidth 125
    maxClassWidth 300
    nodesep 30
    ranksep 30
    CircledCharacterRadius 10
    CircledCharacterFontSize 12
    CircledCharacterFontColor White
    Class {
        FontSize 16
        FontStyle Bold
        BackgroundColor #FFFFFF90
        BorderThickness 0.5
        BorderColor Gray
        ArrowThickness 2
        ArrowColor Gray
        AttributeIconSize 9
    }

}

title Folder & File Structure

right header
<font color=red size=10> Last Check : 06.11.2025</font>
endheader

*[#silver] citydb-3dtiler
**[#silver] <&calculator> io
***[#ghostwhite] <&calculator> io_yaml
****_ read_yaml
****_ write_yaml
***[#ghostwhite] <&calculator> io_sql
****_ read_sql_query
***[#ghostwhite] <&calculator> io_tiles
****_ generate_tiles
**[#silver] <&briefcase> classes
***[#ghostwhite] <&briefcase> advisement
****_ Advisement
***[#ghostwhite] <&briefcase> sql_blocks
****_ CompositeQueryBlock
****_ QueryBlock
****_ QueryBlocks
****_ and_others
**[#silver] <&calculator> database
***[#ghostwhite] <&calculator> pg_connection
****_ pg_show_details
****_ pg_establish
****_ pg_create_session
****_ pg_check_connection
****_ create_materialized_view
****_ index_materialized_view
****_ run_query
****_ run_sql
**[#silver] <&briefcase> instances
***[#ghostwhite] <&briefcase> kernel
****_ set_kernel
***[#ghostwhite] <&briefcase> in_advise
****_ statistics_of_geometries
****_ addition_of_objectclasses
****_ statistics_of_geometries_w_objectclasses
****_ recommended_max_features_per_tile
**[#ghostwhite] <&calculator> citydb-3dtiler
**[#ghostwhite] <&calculator> advise_main
**[#ghostwhite] <&calculator> tile_main




legend left
    Icons:
        Main File <&home>
        Functions <&calculator>
        Classes/Dictionaries <&briefcase>
    Box Colors:
        Folders = Gray
        Files = White
endlegend


@endmindmap

PlantUML version 1.2020.02(Sun Mar 01 11:22:07 CET 2020)
(GPL source distribution)
Java Runtime: OpenJDK Runtime Environment
JVM: OpenJDK 64-Bit Server VM
Java Version: 21.0.8+9-Ubuntu-0ubuntu124.04.1
Operating System: Linux
Default Encoding: UTF-8
Language: en
Country: US
--></g></svg>